<svg xmlns="http://www.w3.org/2000/svg" viewBox="0 0 32 32">
  <path fill="#FFFFF3" d="M19 2.3c.2.2.4.3.4.4l.6.6c.1.1.2.2.3.2l.5.6c.5.3.8.5.8.7V5l.6.5.6.5.2.2.1.3.9.6s.1.2.1.4l.2.1c.2.1.4.2.4.3 0 .1.1.1.1.2.3.2.4.3.4.5l.2.3.5.3c.2.3.4.6.8.9l.4.3.1.2c0 .1.1.2.2.4l.5.2c.1.3.2.4.3.5.1.2.4.4.8.6l.4.5v.2l.9.7.2.4.2.2.4.2.1.2.4.5c.4.5.6 1 .5 1.4-.1.4-.3.7-.6.9-.2.1-.5.2-.9.4-.4.1-.7.2-1.1.2-.6 0-1.1-.2-1.6-.5l-.3-.3c-.2-.2-.3-.3-.4-.5-.3-.3-.6-.5-.8-.7-.2-.2-.4-.4-.4-.5 0 0 0-.1-.1-.2-.2-.1-.3-.3-.5-.4-.2-.1-.2-.3-.2-.4-.3-.2-.5-.4-.7-.6-.2-.2-.4-.5-.6-.8l-.4-.5c-.1-.2-.2-.3-.4-.5l-.3-.4c-.4-.3-.6-.6-.7-.7l-.1-.2h-.1l-.3-.3c-.1-.1-.2-.2-.4-.3L21 10c-.2-.1-.4-.2-.5-.4-.1-.1-.2-.2-.3-.4v-.1V9l-.1-.1-.5-.2c-.1-.1-.2-.1-.2-.2 0 0 0-.1.1-.1s.1-.1.1-.1-.1 0-.3-.1h-.2l-.3-.4v-.3l-.5-.4-.4-.2-.5-.5-.2-.4-1.1-1.1s-.1.1-.2.3l-.3.3c-.1.1-.2.3-.4.5s-.3.3-.3.4c-.3.4-.7.9-1.2 1.4-.5.5-1 1.1-1.6 1.6l-.4.4c-.1.1-.2.2-.2.3-.1.1-.2.2-.2.3-.2.1-.4.3-.6.5-.2.2-.4.3-.4.4l-.7.7c-.2.2-.4.4-.5.6-.1.1-.2.3-.4.5s-.4.4-.8.7c-.1.1-.2.2-.3.4-.1.2-.3.4-.5.7-.1.2-.2.4-.5.6-.3.3-.6.5-.9.8l-.4.4-.7.7c-.4.4-.9.6-1.4.7-.5.1-1 0-1.3-.1-.6 0-1.1-.2-1.6-.5-.2-.2-.3-.5-.3-.8 0-.3.2-.6.6-1 .2-.2.4-.3.6-.5l.4-.4c.2-.3.5-.6 1.1-1 .4-.4.7-.7.9-1 .2-.2.4-.5.5-.8 0-.1.2-.2.5-.5s.6-.5.8-.7c.1-.1.3-.3.6-.9.1-.1.2-.2.3-.4.1-.2.4-.4.7-.6.2-.1.3-.3.6-.5.1-.2.3-.3.4-.5 0-.2.2-.5.6-.8.3-.3.7-.5 1-.8 0-.1.1-.2.2-.4 0-.1.1-.2.2-.3l.5-.2.1-.2c0-.1.1-.2.2-.3.1-.1.1-.2.1-.2l.4-.2c.1-.1.2-.3.3-.5l.2-.2c.3-.3.6-.4.7-.5.1-.1.2-.2.3-.4l.8-.9.7-.7c.2-.2.4-.5.8-.7.4-.3.7-.4 1-.4.3 0 .6.1.9.3.3.2.6.4.8.5L19 2.3z"/>
  <path fill="#FFFFF3" d="M3.6 29.1c0-.1-.1-.1-.1-.2v-.3-.4c0-.3 0-.7.1-1 .1-.3.1-.8.1-1.3 0-.1 0-.2-.1-.3-.1-.1-.1-.2-.1-.3V25v-.3-.3c0-.1 0-.4.1-.8-.1-.1-.2-.1-.2-.2v-.2c0-.1 0-.3.1-.4.1-.1.1-.3.1-.4s-.1-.2-.2-.4c.1-.7.1-1.2.1-1.5V20c-.1-.1-.1-.4-.1-.7 0-.3 0-.6-.1-.8v-.3c0-.1 0-.2-.1-.4 0-.1 0-.2.1-.3s.1-.2.1-.2c0-.2 0-.3-.1-.5-.1-.1-.1-.3-.1-.4 0-.2 0-.5.1-.7 0-.2.1-.5.1-.7 0-.4.2-.8.5-1 .6 0 1-.1 1.6 0 .3 0 .5.1.8.1.3 0 .5.1.7.1.6.2.9.5 1 .9 0 .1 0 .1.1.3.1.1 0 .3 0 .4l-.1.9c-.1.2-.1.4-.1.7 0 .3.1.6.1.8H10.5c.2 0 .4 0 .6.1.2.1.5.1.8.1.2-.1.6-.1 1-.1h1c.5 0 1.1 0 1.6.1.6 0 1.1.1 1.5.1.2 0 .4 0 .6-.1.2-.1.4-.1.6-.1.2 0 .3 0 .5.1s.3.1.5.1h4.7l.1-.9-.3-.5.2-.7c-.2-.1-.3-.3-.2-.4s.1-.3.1-.5V15v-.5c0-.1.1-.2.3-.3.1-.2.4-.3.6-.4.3-.1.6-.1 1 0h.8c.3 0 .5.1.7.3.4.1.7.2.8.4.1.2.2.5.2.7 0 .1 0 .2-.1.5l-.1.6c0 .1 0 .1.1.2s.1.1.1.2v.5c0 .2 0 .4.1.5 0 .2.1.3.1.5 0 .4 0 .9-.1 1.2 0 .4-.1.8-.1 1.1l.1.7c-.2.2-.3.3-.3.5s0 .4.1.6c.1.2.1.4.1.6 0 .1 0 .1-.1.2 0 .1-.1.1-.1.2v.5c0 .2 0 .2-.1.3 0 .1-.1.2-.1.2 0 .1 0 .3.1.4.1.2.1.3.1.4 0 .2 0 .4-.1.6-.1.2-.1.4 0 .6V27.6c0 .3 0 .5-.1.7-.1.2-.1.4-.2.5.2.1.3.2.3.3 0 .1 0 .2-.1.3-.1.1-.1.2-.1.2 0 .1 0 .1.1.2s.1.2.1.4c0 .3-.1.6-.4.8-.3.2-.6.3-1 .4-.4.1-.8.2-1.3.2h-1.9c-.1 0-.2 0-.3-.1-.1-.1-.2-.1-.3-.1 0 0-.1 0-.3.1l-.8.1c-.3-.1-.5-.2-.6-.2-.1 0-.2 0-.3.1-.1.1-.2.1-.3.1-.1 0-.3 0-.6-.1-.3 0-.5-.1-.6-.1H17c-.2 0-.4 0-.6.1-.4-.1-.8-.1-1.3-.1H8.3c-.1 0-.2 0-.3-.1-.2 0-.3-.1-.5-.1-.1 0-.3.1-.5.1h-.8c-.2 0-.4-.1-.5-.1h-.8c-.4.1-.8 0-1.1-.1-.3-.1-.5-.4-.5-1v-.7c.3.3.3 0 .3-.3zM8 27.2v1.5h1.4c.5 0 1 0 1.7-.1s1.3-.1 1.7-.1c.3 0 .5 0 .8.1.2.1.4.1.6.1.3 0 .6 0 .9-.1.3-.1.6-.1 1-.1.1 0 .2 0 .4.1.1.1.2.1.3.1.1 0 .2 0 .3-.1.1-.1.2-.1.3-.1h.8c.1 0 .2 0 .2.1.1 0 .2.1.4.1h1.4c.1 0 .2 0 .3-.1.1 0 .2-.1.3-.1s.2 0 .3.1c.2 0 .3.1.3.1h.9c.1 0 .2 0 .3.1.1 0 .1.1.2.1h.9V28c0-.1-.1-.1-.1-.2v-.2c0-.1 0-.1.1-.2s.1-.1.1-.2 0-.2-.1-.3c-.1-.1-.1-.2-.1-.3 0-.1 0-.1.1-.2s.1-.1.1-.2 0-.1-.1-.2-.1-.1-.1-.2l.2-1.2-.1-.6c-.1-.1-.1-.3-.1-.5v-.3c0-.1 0-.2.1-.4s.1-.3.1-.3c0-.1 0-.1-.1-.2s-.1-.1-.1-.2v-.3-.7h-1.4c-.1 0-.3 0-.6-.1H16.1c-.3 0-.5 0-.6.1-.1 0-.2.1-.3.1h-.4c-.1 0-.3 0-.4-.1h-1.7c-.1 0-.3 0-.5-.1H8.2c-.2.2-.2.3-.2.3v1.3c0 .1 0 .3-.1.5 0 .2 0 .3.1.4 0 .2-.1.4-.1.5 0 .1-.1.2-.1.3 0 .1 0 .3.1.5.1.1.1.2.1.4 0 .1 0 .2-.1.3-.1.1-.1.2-.1.3 0 .1 0 .3.1.4.1.2.1.3.1.4 0 .1 0 .2.1.3 0 .1 0 .2-.1.3z"/></svg>
